PathFileType	4	(X/Y/Z)	Patient4_TMGait_0pt5_02_right_33.trc.trc
DataRate	CameraRate	NumFrames	NumMarkers	Units	OrigDataRate	OrigDataStartFrame	OrigNumFrames
78.212290502793	78.212290502793	4	33	mm	78.212290502793	36	       141
Frame#	Time	Sacral			L.Shoulder			Chest			R.Shoulder			Neck			R.ASIS			L.ASIS			R.Thigh.Superior			R.Thigh.Lateral			R.Thigh.Inferior			R.Patella			L.Thigh.Superior			L.Thigh.Lateral			L.Thigh.Inferior			L.Patella			L.Shank.Superior			L.Shank.Lateral			L.Shank.Inferior			R.Shank.Superior			R.Shank.Lateral			R.Shank.Inferior			R.Heel			R.Midfoot.Superior			R.Midfoot.Lateral			R.Toe			L.Heel			L.Midfoot.Lateral			L.Midfoot.Superior			L.Toe			L.Elbow			L.Wrist			R.Elbow			R.Wrist			
		X1	Y1	Z1	X2	Y2	Z2	X3	Y3	Z3	X4	Y4	Z4	X5	Y5	Z5	X6	Y6	Z6	X7	Y7	Z7	X8	Y8	Z8	X9	Y9	Z9	X10	Y10	Z10	X11	Y11	Z11	X12	Y12	Z12	X13	Y13	Z13	X14	Y14	Z14	X15	Y15	Z15	X16	Y16	Z16	X17	Y17	Z17	X18	Y18	Z18	X19	Y19	Z19	X20	Y20	Z20	X21	Y21	Z21	X22	Y22	Z22	X23	Y23	Z23	X24	Y24	Z24	X25	Y25	Z25	X26	Y26	Z26	X27	Y27	Z27	X28	Y28	Z28	X29	Y29	Z29	X30	Y30	Z30	X31	Y31	Z31	X32	Y32	Z32	X33	Y33	Z33	

36	43.607500000000	744.419333472158	1006.794219313439	491.158865583740	947.280505106740	1436.279661066841	336.752408741640	1030.310415143764	1358.969879860150	505.273385244781	929.322811717119	1429.739580260961	672.029150644503	931.160500746483	1492.256047629397	490.045353445276	962.697753569734	939.736531276949	624.852746977565	966.968788104037	956.369893482073	351.155859650567	1023.737370305915	749.117934350345	592.757606821400	951.893018675468	634.583309193808	649.053002968549	1035.285489532864	589.037073575222	569.807969075418	1045.816553459987	499.450768318971	575.699014942880	998.821137771518	735.612403032794	379.812673748202	911.524510824570	624.199819517895	311.177524999969	989.845553432619	537.898024860062	375.083581356898	980.672198812152	453.936343746056	374.687920751256	916.301615000736	395.212355266415	367.230695982840	783.665761462094	341.108625785303	310.411130280288	771.419171930215	216.112006921365	372.407161604904	1021.367381802159	409.903528465690	581.826227083250	956.015616942374	303.326538869807	644.301834910934	1000.776907703351	210.072623525918	580.596104984407	871.467772130919	44.393663551705	553.719094656228	1043.841776456820	97.831925588508	584.578728523713	956.729537690264	37.526346440166	625.978626211240	1164.798741247667	42.260241825310	609.250147281739	582.876070654327	134.627694702122	401.418014024659	649.810589985844	94.733226150412	326.810656452587	749.986527194675	116.184623119912	353.754299313736	841.937859620306	32.979481794091	335.546004594715	969.967877190596	1096.993478094699	186.213722099693	1204.801140948922	986.002872171268	193.936220422937	854.748583229730	1083.095999928249	769.335712787387	958.716958103176	843.316404890258	770.942108637023	
37	43.620285714286	744.693442840102	1007.455501688523	494.136929429303	946.763626811009	1436.853688321951	338.437744974621	1030.739653407736	1359.669575796355	506.563720181999	930.686301897913	1430.507776138791	673.762810910363	931.312949145054	1492.898544752669	491.822837856243	963.497357092504	940.473853697695	626.706621617281	966.775706354515	956.750770631035	352.845648797330	1022.666897609021	748.290380312589	595.531397975438	949.220006489835	634.610527844820	651.212223864460	1032.335256215521	588.360561105163	572.015573250661	1041.844032135631	498.839282503506	577.489732376039	1003.184653896232	738.347555476132	381.827634034384	919.976573389991	624.916328981744	312.132658325949	1001.182321619235	540.248460724367	375.507725435803	993.083469053924	455.096134042077	374.360658623983	926.867612821759	396.493165654422	367.105159789936	792.056363561757	347.247378039691	310.792262973072	776.355330671918	222.193781614291	371.963507320845	1017.002881998459	409.537228898563	583.330129889004	951.026436541252	303.148517110325	645.357038983615	995.280558317678	209.872334462595	581.320998364004	865.223780115116	44.413899764452	553.874774789348	1037.538349879557	97.859719762388	584.886912910676	950.458974029524	37.480999325257	626.133894566990	1158.546756057530	42.076601040506	609.541579744321	584.951789621314	150.162464635630	400.704524524661	649.617848764413	106.056963519740	326.351622981762	751.009419616884	121.242469339181	353.448048308344	836.741786544322	32.000747387323	335.896840340813	966.876808036509	1095.701489282985	191.083500298926	1197.019535621879	973.935975547657	197.583490733583	862.772457010337	1083.361933793016	774.597465699816	979.828465300565	849.917297206986	776.359925615832	
38	43.633071428571	744.751600345525	1008.000866486569	497.023444247545	946.045334033485	1437.204997263123	339.932507391034	1031.048614149269	1360.210371330847	507.655126834332	931.990588125472	1431.168284945269	675.335985493323	931.350121433623	1493.392203610779	493.390959848446	964.070097181401	941.051815261766	628.522660262405	966.534040290289	956.965442527172	354.481267794026	1021.417281341528	747.415716010293	598.382494572027	946.403719410319	634.577333027196	653.372617882125	1029.317288737517	587.651448444779	574.285323096649	1037.776698231668	498.198143297461	579.345870852791	1007.392418279443	741.165562580615	383.758453877455	928.288947209107	625.923084283294	312.933138222181	1012.226815266994	543.017522453102	375.890485321036	1005.366406877088	456.762182319578	374.124756670951	937.526473696450	398.154253846747	366.976190961797	800.851093178390	353.523213150910	311.015149854580	781.806939070963	228.531624151956	371.531620515173	1012.550755142916	409.123692904361	584.881699111057	945.905364242078	302.920270085828	646.408054364293	989.716351488017	209.633952160068	582.079793854523	858.918056473102	44.431275006507	554.023878912772	1031.200428450935	97.826367915701	585.198619518615	944.119944036310	37.430063832659	626.293777208116	1152.231756281501	41.870390281306	609.814912305255	588.019855583502	165.649389584003	399.881626762593	650.439114823504	117.686122675718	325.791166321040	752.719724861334	126.824807864756	353.168870126883	832.346393445742	31.170785970781	336.151940133889	963.613339143344	1094.217137882886	195.767010435376	1188.182714811401	961.345449931514	200.988364037618	870.922012345017	1083.758299521720	779.828832809930	1001.069597250024	857.574554840230	781.446355820343	
39	43.645857142857	744.595606349600	1008.460286231204	499.788544476903	945.161011604610	1437.356596320736	341.242086185288	1031.241608795600	1360.609865932287	508.562708195040	933.227688104738	1431.748684888014	676.752456086160	931.308240819484	1493.764273019302	494.745557207142	964.423230914343	941.494913040784	630.310147551514	966.235263371453	957.083748368952	356.089778798133	1020.040417639070	746.554126563767	601.215872825750	943.522119690523	634.515586711736	655.477377114092	1026.288349318073	586.937087585392	576.548657340067	1033.679463528806	497.547571824410	581.199476517495	1011.353696906764	744.077450617979	385.585065660719	936.303173738191	627.273118396539	313.582710297792	1022.800403338529	546.224785095988	376.236650149745	1017.356842590875	458.960324688918	373.945332916009	948.132033652790	400.216717900666	366.827824520829	809.903351174882	359.803173995159	311.084923496123	787.759475027552	234.945645072500	371.098629796637	1008.066516641444	408.682661339494	586.421191207752	940.718844677323	302.672903254055	647.430046551190	984.117322916729	209.373925157027	582.842069974804	852.557680386822	44.455451923835	554.172584076610	1024.840325177209	97.750479564433	585.509011104084	937.724096968140	37.380142965568	626.457331344356	1145.865264127288	41.649469952814	610.067478394184	592.079547983422	180.492713334241	399.007437871247	652.382995606058	129.156576583927	325.151703667549	755.251269572456	132.742494997109	352.873334378239	829.150337726303	30.614515089298	336.223942343840	960.192306077634	1092.575325670920	200.254000551157	1178.211662686278	948.359087586385	204.143453875366	879.250674301064	1084.279196739551	784.926432632878	1022.306803862300	866.266976391821	786.131228867464	
